<?xml version="1.0" standalone="no"?><!DOCTYPE svg PUBLIC "-//W3C//DTD SVG 1.1//EN" "http://www.w3.org/Graphics/SVG/1.1/DTD/svg11.dtd"><svg t="1556174109432" class="icon" style="" viewBox="0 0 1025 1024" version="1.1" xmlns="http://www.w3.org/2000/svg" p-id="2234" xmlns:xlink="http://www.w3.org/1999/xlink" width="240.234375" height="240"><defs><style type="text/css"></style></defs><path d="M904.027624 240.028194L660.324896 483.657869 493.400215 316.733189c-0.876629-0.949681-1.168838-2.556833-2.118519-3.141252a73.929005 73.929005 0 0 0-103.442165 0c-0.949681 0.949681-1.24189 2.191571-2.118519 3.141252L168.682401 533.844852a72.394905 72.394905 0 0 0 102.273328 102.273327L439.560614 467.586347l162.687642 162.833747a65.747139 65.747139 0 0 0 4.237038 6.355557 69.618915 69.618915 0 0 0 51.136664 20.30856 71.737434 71.737434 0 0 0 53.109077-20.819927 69.180601 69.180601 0 0 0 8.401024-12.711113L994.758675 347.634344A506.106865 506.106865 0 0 1 1023.979626 511.417773a511.951055 511.951055 0 1 1-89.270004-288.264678 68.303972 68.303972 0 0 0-30.681998 16.875099z" fill="#FFFFFF" p-id="2235"></path></svg>