<?xml version="1.0" standalone="no"?><!DOCTYPE svg PUBLIC "-//W3C//DTD SVG 1.1//EN" "http://www.w3.org/Graphics/SVG/1.1/DTD/svg11.dtd"><svg t="1562725565746" class="icon" viewBox="0 0 1024 1024" version="1.1" xmlns="http://www.w3.org/2000/svg" p-id="8881" xmlns:xlink="http://www.w3.org/1999/xlink" width="200" height="200"><defs><style type="text/css"></style></defs><path d="M939.346202 1023.999431H84.650384A84.42283 84.42283 0 0 1 0 940.828153V352.71278a84.42283 84.42283 0 0 1 84.650384-83.171278h854.695818A84.42283 84.42283 0 0 1 1023.996587 352.71278v588.286039A84.42283 84.42283 0 0 1 939.346202 1023.999431z m10.0693-671.286651a9.443524 9.443524 0 0 0-10.0693-9.898634H84.650384a9.443524 9.443524 0 0 0-10.069299 9.898634v588.286039a9.443524 9.443524 0 0 0 10.069299 9.898634h854.695818a9.443524 9.443524 0 0 0 10.0693-9.898634V352.71278z m-161.279462 415.970169a66.502889 66.502889 0 0 1-66.50289-65.365116 60.35891 60.35891 0 0 1 6.030202-25.77058l-82.65928-85.333049a102.399659 102.399659 0 0 1-24.177697 3.982209c-4.039098 0-8.078195-1.991104-12.117293-1.991105l-104.845873 156.443923a64.511785 64.511785 0 0 1 12.117293 37.660319 66.502889 66.502889 0 0 1-133.005779 0 62.236237 62.236237 0 0 1 6.030203-27.704796l-114.915173-126.804911a73.158867 73.158867 0 0 1-22.186593 3.982209 65.365115 65.365115 0 1 1 66.50289-65.365116 62.236237 62.236237 0 0 1-6.030202 27.704797l114.915172 126.804911a73.272645 73.272645 0 0 1 22.186593-3.982209c4.039098 0 8.078195 1.991104 12.117293 1.991104l104.845873-156.500812a64.341119 64.341119 0 0 1-12.117293-37.60343 66.559778 66.559778 0 0 1 133.062667 0 59.9038 59.9038 0 0 1-6.030202 25.713692l82.65928 85.333049a102.399659 102.399659 0 0 1 24.177697-3.982209 65.365115 65.365115 0 1 1-0.056888 130.616454z m137.101765-566.497667H98.758782a35.669214 35.669214 0 1 1 0-71.281541h826.479023a35.669214 35.669214 0 1 1 0 71.110875z m-102.79788-130.844009H201.556661a35.669214 35.669214 0 1 1 0-71.28154h622.874369a35.782992 35.782992 0 0 1 36.29499 35.669215 36.29499 36.29499 0 0 1-38.286095 35.555437z" p-id="8882" fill="#ffffff"></path></svg>