<?xml version="1.0" standalone="no"?><!DOCTYPE svg PUBLIC "-//W3C//DTD SVG 1.1//EN" "http://www.w3.org/Graphics/SVG/1.1/DTD/svg11.dtd"><svg t="1563783828614" class="icon" viewBox="0 0 1028 1024" version="1.1" xmlns="http://www.w3.org/2000/svg" p-id="1525" xmlns:xlink="http://www.w3.org/1999/xlink" width="200.78125" height="200"><defs><style type="text/css"></style></defs><path d="M514.336 877.28l415.488-415.36c20.384-20.576 32.64-45.28 32.672-74.08 0.032-28.8-12.192-53.472-32.576-74.048l-215.584-218.304c-40.704-41.152-109.888-41.152-150.624-0.064L148.16 510.784c-16.288 12.384-24.448 28.8-28.512 49.344l-53.152 304.576c0 24.672 8.096 53.472 24.384 69.952 16.288 16.48 36.64 24.704 61.088 24.704l12.224 0.064 301.28-53.344c20.384-4.064 36.64-12.32 48.864-28.8z m122.848-685.248l196.288 198.688c3.712 3.68 7.424 11.232 7.424 14.912 0 3.808-3.712 7.488-7.456 11.296l-51.872 56.16-229.632-228.64L603.808 192c7.424-7.456 22.24-7.456 33.376 0.032z m-181.952 606.784l-277.92 48.48 48.256-277.184 257.056-255.904 229.568 228.672-256.96 255.936z" fill="#ffffff" p-id="1526"></path></svg>