<?xml version="1.0" standalone="no"?><!DOCTYPE svg PUBLIC "-//W3C//DTD SVG 1.1//EN" "http://www.w3.org/Graphics/SVG/1.1/DTD/svg11.dtd"><svg t="1557039525430" class="icon" style="" viewBox="0 0 1024 1024" version="1.1" xmlns="http://www.w3.org/2000/svg" p-id="2926" xmlns:xlink="http://www.w3.org/1999/xlink" width="200" height="200"><defs><style type="text/css"></style></defs><path d="M37.726306 537.114806a37.726306 37.726306 0 0 1-26.677888-64.377246l452.71567-452.715671a68.338508 68.338508 0 0 1 96.498501 0l452.715671 452.715671a37.726306 37.726306 0 1 1-53.355776 53.328828L511.999865 78.470716 64.377246 526.066388a37.726306 37.726306 0 0 1-26.65094 11.048418zM838.574937 1023.999731H180.547321a67.179772 67.179772 0 0 1-67.368403-66.829457V644.985093a37.726306 37.726306 0 1 1 75.452611 0V948.547119h646.736672V644.958146a37.726306 37.726306 0 0 1 75.452612 0v312.185181c0 36.86399-35.03157 66.856403-72.245876 66.856404z" fill="#ffffff" p-id="2927"></path><path d="M986.273425 280.252558a37.726306 37.726306 0 0 1-37.726306-37.726306V75.452612h-167.07364a37.726306 37.726306 0 0 1 0-75.452612h172.463112a70.063139 70.063139 0 0 1 70.06314 70.063139v172.463113a37.726306 37.726306 0 0 1-37.726306 37.726306z m-32.336834-204.799946z" fill="#ffffff" p-id="2928"></path></svg>