<?xml version="1.0" standalone="no"?><!DOCTYPE svg PUBLIC "-//W3C//DTD SVG 1.1//EN" "http://www.w3.org/Graphics/SVG/1.1/DTD/svg11.dtd"><svg t="1562725483145" class="icon" viewBox="0 0 1024 1024" version="1.1" xmlns="http://www.w3.org/2000/svg" p-id="5392" xmlns:xlink="http://www.w3.org/1999/xlink" width="200" height="200"><defs><style type="text/css"></style></defs><path d="M162.1248125 873.61757375h421.76734969c-7.66849687-14.37843281-12.46130813-30.67398937-16.2955575-46.96954594H162.1248125c-39.30104813 0-70.93359938-28.75686469-70.93359938-65.18222625V143.19321031c0-36.42536156 31.63255125-65.18222625 70.93359938-65.18222718H262.77383938V32H162.1248125C97.90114813 32 46.13879187 79.92810781 44.22166719 141.27608562v624.02396438c1.91712469 60.38941594 53.67948094 108.31752375 117.90314531 108.31752375zM728.6350475 32h-93.93909188v46.01098312h93.93909188c39.30104813 0 70.93359938 28.75686469 70.93359937 65.18222719v431.35297031c16.29555656 1.91712469 31.63255125 6.709935 46.01098407 12.46130813V143.19321031C846.53819281 81.8452325 793.81727375 32 728.6350475 32z" p-id="5393" fill="#ffffff"></path><path d="M677.83125313 443.22316531H233.05841281c-12.46130813 0-23.00549156 10.54418344-23.0054925 23.00549156 0 12.46130813 10.54418344 23.00549156 23.0054925 23.00549157h444.77284032c12.46130813 0 23.00549156-10.54418344 23.00549156-23.00549156 0-13.41987-10.54418344-23.00549156-23.00549156-23.00549157zM677.83125313 594.67598563H233.05841281c-12.46130813 0-23.00549156 10.54418344-23.0054925 23.0054925 0 12.46130813 10.54418344 23.00549156 23.0054925 23.00549156h383.4248625c17.25411844-18.21268125 38.34248625-33.54967594 61.34797781-46.01098406zM210.05292031 313.81727375c0 12.46130813 10.54418344 23.00549156 23.0054925 23.0054925h444.77284032c12.46130813 0 23.00549156-10.54418344 23.00549156-23.0054925 0-12.46130813-10.54418344-23.00549156-23.00549156-23.00549156H233.05841281c-12.46130813 0-23.00549156 9.58562156-23.0054925 23.00549156zM377.80129812 78.01098312h145.70144813c12.46130813 0 23.00549156-10.54418344 23.00549156-23.00549156 0.95856188-13.41987-9.58562156-23.00549156-23.00549156-23.00549156H377.80129812c-12.46130813 0-23.00549156 10.54418344-23.00549156 23.00549156 0 12.46130813 10.54418344 23.00549156 23.00549156 23.00549157z" p-id="5394" fill="#ffffff"></path><path d="M972.109835 950.30254625l-70.93359938-70.93359938C921.30604063 851.57064406 933.76734875 818.02096813 933.76734875 782.55416844c0-90.1048425-73.80928594-163.91412844-163.91412844-163.91412844-90.1048425 0-163.91412844 73.80928594-163.91412937 163.91412844 0 90.1048425 73.80928594 163.91412844 163.91412937 163.91412937 37.38392437 0 69.9750375-12.46130813 96.8147775-32.59111312l70.93359938 70.93359937c9.58562156 9.58562156 24.92261625 9.58562156 34.50823781 0 9.58562156-8.62705969 9.58562156-23.96405437 0-34.50823781z m-203.21517656-50.80379438c-65.18222625 0-117.90314531-51.76235625-117.90314532-117.90314531 0-65.18222625 51.76235625-117.90314531 117.90314532-117.90314531 65.18222625 0 117.90314531 51.76235625 117.90314531 117.90314531-0.95856188 66.14078906-52.72091906 117.90314531-117.90314531 117.90314531z m0 0" p-id="5395" fill="#ffffff"></path></svg>