<?xml version="1.0" standalone="no"?><!DOCTYPE svg PUBLIC "-//W3C//DTD SVG 1.1//EN" "http://www.w3.org/Graphics/SVG/1.1/DTD/svg11.dtd"><svg t="1558334698591" class="icon" style="" viewBox="0 0 1025 1024" version="1.1" xmlns="http://www.w3.org/2000/svg" p-id="3739" xmlns:xlink="http://www.w3.org/1999/xlink" width="200.1953125" height="200"><defs><style type="text/css"></style></defs><path d="M512.581136 1023.966802a511.983567 511.983567 0 1 1 512.581135-511.983567 512.215955 512.215955 0 0 1-512.581135 511.983567z m0-951.329341a431.577381 431.577381 0 1 0 431.577381 431.577381 431.577381 431.577381 0 0 0-431.577381-431.577381z m89.967284 503.849993a230.528718 230.528718 0 0 1-46.477564-3.585412v215.124725h-82.663667V245.89918a776.839286 776.839286 0 0 1 133.457005-10.756236A222.992713 222.992713 0 0 1 758.24826 278.898251a152.346815 152.346815 0 0 1 49.465408 118.318599c0 133.390609-106.234432 179.270604-205.165248 179.270604z m9.295513-276.076731a289.654819 289.654819 0 0 0-55.773077 5.012938v200.783077a171.236625 171.236625 0 0 0 46.477564 4.315773c76.024016 0 121.837614-39.439533 121.837615-109.554258 0-66.861296-45.813599-100.55753-112.542102-100.55753zM276.209524 239.458718h83.327633v548.568049H276.209524V239.458718z" p-id="3740" fill="#ffffff"></path></svg>