<?xml version="1.0" standalone="no"?><!DOCTYPE svg PUBLIC "-//W3C//DTD SVG 1.1//EN" "http://www.w3.org/Graphics/SVG/1.1/DTD/svg11.dtd"><svg t="1562725522245" class="icon" viewBox="0 0 1327 1024" version="1.1" xmlns="http://www.w3.org/2000/svg" p-id="7098" xmlns:xlink="http://www.w3.org/1999/xlink" width="259.1796875" height="200"><defs><style type="text/css"></style></defs><path d="M174.46 887.464v-7.586c0 2.602-0.35 5.105-0.768 7.586h0.766z m-45.513-53.097a45.51 45.51 0 0 1 45.511 45.51v-8.7c0 34.134 27.603 61.797 61.645 61.797h847.61c34.043 0 61.646-27.663 61.646-61.796V637.154a45.51 45.51 0 1 1 91.021 0v273.064c0 62.836-50.942 113.778-113.777 113.778H197.214c-62.836 0-113.777-50.942-113.777-113.778v-22.754h0.766a45.504 45.504 0 0 1-0.766-7.586 45.51 45.51 0 0 1 45.51-45.51z m695.537-227.152c-24.993-2.966-47.612 14.836-50.517 39.768-2.906 24.925 15.003 47.536 39.996 50.502s47.612-14.837 50.518-39.769c2.905-24.924-15.004-47.535-39.997-50.501z m-18.728 160.137c-64.588-7.593-110.85-65.505-103.348-129.341 7.51-63.837 65.953-109.44 130.533-101.84a118.003 118.003 0 0 1 60.28 25.282l100.115-70.815c12.97-9.17 32.404-4.293 43.41 10.9 11.006 15.193 9.42 34.937-3.543 44.108l-101.52 71.8c4.764 15.096 6.561 31.365 4.597 48.068-7.51 63.836-65.945 109.431-130.525 101.838zM530.824 288.874c-24.803-3.93-48.226 13.008-52.315 37.819a45.155 45.155 0 0 0 37.502 52.042c24.803 3.929 48.226-13.001 52.315-37.82a45.162 45.162 0 0 0-37.502-52.042z m172.365 237.323c-14.13 12.13-33.678 12.144-43.668 0.023l-76.632-93.01c-22.702 13.79-50.032 19.912-78.074 15.383-63.51-10.262-106.51-71.132-96.044-135.963 10.475-64.823 70.46-109.06 133.97-98.805 63.518 10.263 106.51 71.134 96.043 135.965a121.302 121.302 0 0 1-10.255 32.775l82.17 99.722c9.982 12.121 6.621 31.774-7.51 43.91zM75.457 625.79c0 35.156 28.05 63.646 62.653 63.646 34.596 0 62.646-28.49 62.646-63.646 0-35.15-28.05-63.647-62.646-63.647-34.603 0-62.653 28.497-62.653 63.647z m150.512-108.256l89.14-78.522c12.707-11.195 33.573-7.888 46.605 7.38 13.039 15.277 13.297 36.728 0.59 47.924l-94.609 83.33a141.69 141.69 0 0 1 8.519 48.144c0 77.49-61.827 140.309-138.104 140.309C61.834 766.101 0 703.281 0 625.792c0-77.49 61.834-140.303 138.11-140.303 33.375 0 63.981 12.022 87.86 32.047z m964.9-312.736a45.51 45.51 0 0 1-45.51-45.51v-6.47c0-34.134-27.603-61.797-61.645-61.797h-847.61c-34.043 0-61.646 27.663-61.646 61.796v211.27a45.51 45.51 0 1 1-91.021 0v-250.31C83.437 50.942 134.378 0 197.214 0h925.389c62.835 0 113.777 50.942 113.777 113.778v45.51a45.51 45.51 0 0 1-45.51 45.511z m-3.793 122.182a63.655 63.655 0 0 0-63.653 63.654 63.655 63.655 0 0 0 63.653 63.655 63.655 63.655 0 0 0 63.655-63.655 63.655 63.655 0 0 0-63.655-63.654z m0 203.98c-77.496 0-140.324-62.828-140.324-140.326s62.828-140.325 140.324-140.325 140.326 62.828 140.326 140.325-62.828 140.326-140.326 140.326z" p-id="7099" fill="#ffffff"></path></svg>