<?xml version="1.0" standalone="no"?><!DOCTYPE svg PUBLIC "-//W3C//DTD SVG 1.1//EN" "http://www.w3.org/Graphics/SVG/1.1/DTD/svg11.dtd"><svg t="1567406390406" class="icon" viewBox="0 0 1024 1024" version="1.1" xmlns="http://www.w3.org/2000/svg" p-id="2754" width="200" height="200" xmlns:xlink="http://www.w3.org/1999/xlink"><defs><style type="text/css"></style></defs><path d="M968.962617 323.888771c-25.354221-59.942374-61.643282-113.769147-107.859349-159.985214S761.059418 81.39742 701.118053 56.044208C639.042987 29.789091 573.121206 16.47641 505.182749 16.47641S371.322511 29.789091 309.248454 56.044208c-59.942374 25.353212-113.768138 61.642273-159.985214 107.859349-46.217076 46.217076-82.506137 100.043849-107.859349 159.985214-26.255117 62.074057-39.567798 127.996847-39.567798 195.934295 0 67.937448 13.312681 133.860238 39.567798 195.934295 25.353212 59.941365 61.642273 113.768138 107.859349 159.985214 46.217076 46.217076 100.043849 82.506137 159.985214 107.859349 62.074057 26.255117 127.996847 39.567798 195.934295 39.567798s133.860238-13.311672 195.935304-39.567798c59.941365-25.353212 113.768138-61.643282 159.985214-107.859349s82.505128-100.043849 107.859349-159.985214c26.255117-62.074057 39.567798-127.996847 39.567798-195.934295C1008.530415 451.885619 995.217734 385.963837 968.962617 323.888771zM913.212991 692.178703c-22.300456 52.727135-54.234345 100.086221-94.91086 140.763745-40.677524 40.676515-88.037619 72.610405-140.763745 94.91086-54.573316 23.082308-112.561563 34.785886-172.355637 34.785886-59.793065 0-117.782321-11.704587-172.354628-34.785886-52.727135-22.300456-100.086221-54.234345-140.763745-94.91086-40.677524-40.677524-72.610405-88.037619-94.911869-140.763745-23.082308-54.573316-34.785886-112.561563-34.785886-172.354628s11.703578-117.782321 34.785886-172.354628c22.301464-52.727135 54.234345-100.086221 94.911869-140.763745s88.03661-72.610405 140.763745-94.911869c54.573316-23.082308 112.561563-34.785886 172.354628-34.785886 59.794074 0 117.782321 11.703578 172.355637 34.785886 52.727135 22.301464 100.086221 54.234345 140.762736 94.911869 40.677524 40.677524 72.611414 88.037619 94.911869 140.763745 23.082308 54.573316 34.785886 112.561563 34.785886 172.354628C947.999886 579.61714 936.295299 637.605387 913.212991 692.178703z" p-id="2755" fill="#ffffff"></path><path d="M692.875813 588.197343 535.005132 588.197343l0-57.271969c0-1.371016-0.099875-2.717821-0.276423-4.040413l129.059158 0c16.716514 0 30.268291-13.551777 30.268291-30.268291 0-16.716514-13.551777-30.268291-30.268291-30.268291L542.259716 466.34838l117.177015-117.177015c11.820603-11.820603 11.820603-30.985578 0-42.805172-11.820603-11.820603-30.985578-11.820603-42.805172 0L502.259125 420.739635 387.887699 306.367201c-11.820603-11.820603-30.985578-11.820603-42.805172 0-11.820603 11.820603-11.820603 30.985578 0 42.805172l117.177015 117.177015L346.022768 466.349388c-16.716514 0-30.268291 13.551777-30.268291 30.268291 0 16.716514 13.551777 30.268291 30.268291 30.268291l128.722205 0c-0.176547 1.322592-0.276423 2.669396-0.276423 4.040413l0 57.271969L315.589027 588.198352c-16.716514 0-30.268291 13.551777-30.268291 30.268291 0 16.716514 13.551777 30.268291 30.268291 30.268291l158.879523 0 0 122.275704c0 16.716514 13.551777 30.268291 30.268291 30.268291s30.268291-13.551777 30.268291-30.268291L535.005132 648.733925l157.870681 0c16.716514 0 30.268291-13.551777 30.268291-30.268291C723.143095 601.749119 709.592327 588.197343 692.875813 588.197343z" p-id="2756" fill="#ffffff"></path></svg>