<?xml version="1.0" standalone="no"?><!DOCTYPE svg PUBLIC "-//W3C//DTD SVG 1.1//EN" "http://www.w3.org/Graphics/SVG/1.1/DTD/svg11.dtd"><svg t="1556174349204" class="icon" style="" viewBox="0 0 1024 1024" version="1.1" xmlns="http://www.w3.org/2000/svg" p-id="3332" xmlns:xlink="http://www.w3.org/1999/xlink" width="240" height="240"><defs><style type="text/css"></style></defs><path d="M969.905151 950.509763L894.613682 683.387159c-5.043448-18.372559-24.316623-29.36007-43.769921-25.037115-9.366403 2.521724-17.291821 8.465787-21.975022 16.751451-4.683201 8.105541-5.76394 17.471944-3.242216 26.658224l61.602111 217.768865-2.701847-0.540369-179.042392-37.285489-0.360247-1.080738-24.856992-92.403167c-2.521724-9.18628-8.465787-16.931574-16.571328-21.614775-8.285664-4.683201-18.012313-5.944063-27.198592-3.42234-9.366403 2.521724-17.111697 8.465787-21.975022 16.931575-4.683201 8.285664-5.944063 17.83219-3.42234 27.018469l17.652067 66.645559-259.557432 79.97467-0.540369-0.180123-235.961302-78.893932 0.540369-1.621108 88.620581-257.395954c2.521724-9.006157 1.260862-18.552682-3.602463-26.838347-4.683201-8.105541-12.428496-13.869481-21.794899-16.391205-3.062093-0.900616-6.30431-1.260862-9.546526-1.260861-6.124186 0-12.06825 1.621108-17.471943 4.683201-8.285664 4.683201-14.229727 12.428496-16.571328 21.074406L52.898291 886.926297c-4.142832 13.869481 1.621108 29.179947 14.589974 37.825858 3.422339 1.981354 7.385048 4.503078 12.248372 6.124186l270.725066 90.061566 3.602463 0.360246c6.484433 1.621108 12.428496 1.801231 19.453298 0.900616l273.066667-85.198241h0.360246l277.569745 57.819525c9.906772 2.341601 21.254529 0 29.720317-5.944064 1.260862-0.720493 2.161478-1.440985 2.521724-1.801231v-0.360246l5.583817-4.683202c8.105541-9.006157 10.987511-20.534037 7.565171-31.521547m-474.444327-160.48971c14.95022 10.627265 34.763764 10.627265 49.533861 0 73.310114-52.595954 312.693755-241.184872 312.693755-461.655585C857.68844 147.700967 706.565134 0.720493 520.678062 0.720493S183.487561 147.700967 183.487561 328.364468c-0.540369 211.824802 217.948989 393.388918 311.973263 461.655585M519.95757 70.968514c147.160598 0 266.762357 115.098681 266.762357 256.675461 0 177.78153-197.955321 330.525945-258.656816 373.035005-2.341601 1.621108-5.043448 2.521724-7.745295 2.521724s-5.583817-0.900616-7.925418-2.521724c-60.701495-42.509059-258.476693-195.073351-258.476693-372.854881 0-141.756904 119.241513-256.855585 266.041865-256.855585m0.720492 407.618645c79.97467 0 144.99912-64.484081 144.999121-143.558135s-65.02445-143.558135-144.999121-143.558136h-1.260862c-38.186104 0-74.21073 14.770097-101.409322 41.42832-27.738962 27.198593-43.049428 63.583465-43.049429 102.129816 0 79.254178 65.384697 143.558135 145.719613 143.558135m0-217.588742c40.887951 0 74.030607 32.962533 74.030607 73.310114s-33.142656 73.310114-74.030607 73.310115c-40.887951 0-74.030607-32.962533-74.030607-73.310115 0-41.068074 32.422164-73.310114 74.030607-73.310114" p-id="3333" fill="#ffffff"></path></svg>